<mxfile host="www.draw.io" modified="2023-12-15T09:16:55.674Z" agent="Mozilla/5.0 (Windows NT 10.0; Win64; x64) AppleWebKit/537.36 (KHTML, like Gecko) Chrome/119.0.0.0 Safari/537.36" etag="DGjG2dtyCCnErV8SuBwq" version="22.1.9" type="device">
  <diagram name="第 1 页" id="RVsbS5M0KJHQ4rmu5Qll">
    <mxGraphModel dx="1008" dy="634" grid="1" gridSize="10" guides="1" tooltips="1" connect="1" arrows="1" fold="1" page="1" pageScale="1" pageWidth="827" pageHeight="1169" math="0" shadow="0">
      <root>
        <mxCell id="0" />
        <mxCell id="1" parent="0" />
        <mxCell id="nd4nFu_06cJ-R9hvZUtN-4" value="中央长老团" style="rounded=0;whiteSpace=wrap;html=1;" vertex="1" parent="1">
          <mxGeometry x="150" y="230" width="100" height="60" as="geometry" />
        </mxCell>
        <mxCell id="nd4nFu_06cJ-R9hvZUtN-5" value="国家分部" style="rounded=0;whiteSpace=wrap;html=1;" vertex="1" parent="1">
          <mxGeometry x="140" y="335" width="100" height="60" as="geometry" />
        </mxCell>
        <mxCell id="nd4nFu_06cJ-R9hvZUtN-6" value="分区监督" style="rounded=0;whiteSpace=wrap;html=1;" vertex="1" parent="1">
          <mxGeometry x="140" y="445" width="100" height="60" as="geometry" />
        </mxCell>
        <mxCell id="nd4nFu_06cJ-R9hvZUtN-7" value="聚会活动安排" style="text;html=1;align=center;verticalAlign=middle;resizable=0;points=[];autosize=1;strokeColor=none;fillColor=none;" vertex="1" parent="1">
          <mxGeometry x="90" y="170" width="100" height="30" as="geometry" />
        </mxCell>
        <mxCell id="nd4nFu_06cJ-R9hvZUtN-8" value="地区长老" style="rounded=0;whiteSpace=wrap;html=1;" vertex="1" parent="1">
          <mxGeometry x="90" y="560" width="100" height="60" as="geometry" />
        </mxCell>
        <mxCell id="nd4nFu_06cJ-R9hvZUtN-9" value="助理仆人" style="rounded=0;whiteSpace=wrap;html=1;" vertex="1" parent="1">
          <mxGeometry x="50" y="660" width="100" height="60" as="geometry" />
        </mxCell>
        <mxCell id="nd4nFu_06cJ-R9hvZUtN-23" style="edgeStyle=orthogonalEdgeStyle;rounded=0;orthogonalLoop=1;jettySize=auto;html=1;entryX=1;entryY=0.5;entryDx=0;entryDy=0;" edge="1" parent="1" source="nd4nFu_06cJ-R9hvZUtN-10" target="nd4nFu_06cJ-R9hvZUtN-19">
          <mxGeometry relative="1" as="geometry" />
        </mxCell>
        <mxCell id="nd4nFu_06cJ-R9hvZUtN-10" value="未受浸传道员" style="rounded=0;whiteSpace=wrap;html=1;" vertex="1" parent="1">
          <mxGeometry x="620" y="515" width="100" height="60" as="geometry" />
        </mxCell>
        <mxCell id="nd4nFu_06cJ-R9hvZUtN-11" value="正规先驱" style="rounded=0;whiteSpace=wrap;html=1;" vertex="1" parent="1">
          <mxGeometry x="490" y="445" width="100" height="60" as="geometry" />
        </mxCell>
        <mxCell id="nd4nFu_06cJ-R9hvZUtN-12" value="受浸" style="rounded=0;whiteSpace=wrap;html=1;" vertex="1" parent="1">
          <mxGeometry x="180" y="760" width="100" height="60" as="geometry" />
        </mxCell>
        <mxCell id="nd4nFu_06cJ-R9hvZUtN-13" value="特殊先驱" style="rounded=0;whiteSpace=wrap;html=1;" vertex="1" parent="1">
          <mxGeometry x="490" y="515" width="100" height="60" as="geometry" />
        </mxCell>
        <mxCell id="nd4nFu_06cJ-R9hvZUtN-14" value="辅助先驱" style="rounded=0;whiteSpace=wrap;html=1;" vertex="1" parent="1">
          <mxGeometry x="620" y="445" width="100" height="60" as="geometry" />
        </mxCell>
        <mxCell id="nd4nFu_06cJ-R9hvZUtN-15" value="传道工作" style="text;html=1;strokeColor=none;fillColor=none;align=center;verticalAlign=middle;whiteSpace=wrap;rounded=0;" vertex="1" parent="1">
          <mxGeometry x="580" y="350" width="60" height="30" as="geometry" />
        </mxCell>
        <mxCell id="nd4nFu_06cJ-R9hvZUtN-19" value="圣经老师" style="rounded=0;whiteSpace=wrap;html=1;" vertex="1" parent="1">
          <mxGeometry x="520" y="790" width="100" height="60" as="geometry" />
        </mxCell>
        <mxCell id="nd4nFu_06cJ-R9hvZUtN-22" value="圣经学习" style="text;html=1;align=center;verticalAlign=middle;resizable=0;points=[];autosize=1;strokeColor=none;fillColor=none;" vertex="1" parent="1">
          <mxGeometry x="540" y="730" width="70" height="30" as="geometry" />
        </mxCell>
      </root>
    </mxGraphModel>
  </diagram>
</mxfile>
